<svg xmlns="http://www.w3.org/2000/svg" viewBox="600 578 1505 320" role="img" aria-label="NexoGRX" fill-rule="evenodd"><path d="M 1183.743 601.250 C 1176.615 610.936, 1168.999 621.455, 1166.305 625.337 C 1158.562 636.494, 1135.957 668.063, 1133.250 671.500 C 1131.950 673.150, 1129.348 676.750, 1127.468 679.500 C 1121.977 687.530, 1105.189 711.339, 1103.670 713.250 C 1102.905 714.212, 1101.879 714.991, 1101.390 714.979 C 1100.900 714.968, 1098.614 712.155, 1096.309 708.729 C 1088.112 696.545, 1081.707 687.444, 1078.552 683.500 C 1076.793 681.300, 1075.044 678.825, 1074.666 678 C 1074.288 677.175, 1070.722 671.946, 1066.740 666.379 C 1062.758 660.812, 1057.250 653.064, 1054.500 649.161 L 1049.500 642.064 1032.250 642.032 C 1022.763 642.014, 1015 642.215, 1015 642.477 C 1015 642.739, 1019.388 649.065, 1024.750 656.534 C 1030.112 664.004, 1035.614 671.777, 1036.976 673.807 C 1044.686 685.305, 1075.181 727.985, 1079.700 733.603 C 1081.515 735.860, 1083 738.489, 1083 739.446 C 1083 740.403, 1078.925 746.881, 1073.944 753.843 C 1068.963 760.804, 1060.751 772.365, 1055.694 779.533 C 1050.637 786.701, 1045.700 793.676, 1044.723 795.033 C 1043.746 796.390, 1038.327 804.025, 1032.681 812 C 1027.035 819.975, 1020.184 829.613, 1017.458 833.417 C 1014.731 837.222, 1010.700 842.909, 1008.500 846.055 C 1006.300 849.201, 1000.100 857.898, 994.721 865.381 C 989.343 872.864, 984.676 879.681, 984.351 880.528 C 983.836 881.869, 985.171 882.033, 994.590 881.785 L 1005.422 881.500 1009.273 876.500 C 1011.392 873.750, 1014.977 868.800, 1017.241 865.500 C 1019.506 862.200, 1025.022 854.550, 1029.500 848.500 C 1033.979 842.450, 1041.661 831.723, 1046.571 824.663 C 1060.387 804.799, 1063.590 800.289, 1071.903 789 C 1076.155 783.225, 1081.957 775.125, 1084.795 771 C 1093.686 758.081, 1101.100 747.676, 1104.869 742.831 C 1106.866 740.263, 1110.750 734.943, 1113.500 731.009 C 1116.250 727.075, 1121.334 719.952, 1124.797 715.178 C 1132.407 704.690, 1150.996 678.614, 1164.489 659.500 C 1169.925 651.800, 1179.172 638.750, 1185.039 630.500 C 1190.906 622.250, 1198.891 611.018, 1202.783 605.541 C 1206.675 600.063, 1209.639 595.226, 1209.371 594.791 C 1209.102 594.356, 1204.426 594, 1198.980 594 L 1189.079 594 1183.743 601.250 M 1290.500 638.926 C 1256.133 644.504, 1228.187 668.518, 1216.907 702.164 C 1212.944 713.988, 1211.752 722.131, 1211.737 737.500 C 1211.714 760.536, 1215.235 774.255, 1225.851 792.484 C 1231.264 801.781, 1244.366 815.582, 1253.770 821.893 C 1284.889 842.779, 1329.625 842.894, 1360.952 822.168 C 1395.105 799.573, 1411.227 753.658, 1400.338 710 C 1398.107 701.056, 1392.083 686.597, 1387.794 679.893 C 1376.513 662.257, 1354.894 646.508, 1334.353 640.961 C 1325.666 638.615, 1299.809 637.416, 1290.500 638.926 M 1584.167 639.555 C 1571.251 641.914, 1557.804 647.475, 1546.385 655.183 C 1534.238 663.381, 1520.864 678.998, 1515.790 690.912 C 1514.715 693.435, 1513.232 696.850, 1512.495 698.500 C 1511.757 700.150, 1509.925 706.225, 1508.423 712 C 1506.073 721.039, 1505.688 724.518, 1505.655 737 C 1505.610 754.202, 1507.315 763.681, 1513.168 778.745 C 1530.621 823.672, 1579.633 846.283, 1635.072 834.985 C 1646.129 832.732, 1660.611 827.772, 1670.496 822.852 L 1677 819.615 1677 774.308 L 1677 729 1641.968 729 L 1606.937 729 1607.218 740.667 L 1607.500 752.334 1628.500 752.417 L 1649.500 752.500 1649.767 777.620 L 1650.034 802.739 1644.767 805.022 C 1635.469 809.053, 1622.080 812.027, 1610.500 812.633 C 1590.252 813.693, 1573.892 808.607, 1559.872 796.893 C 1551.420 789.831, 1547.388 784.897, 1543.057 776.313 C 1535.891 762.109, 1533.401 749.706, 1534.300 732.696 C 1535.420 711.517, 1541.707 696.854, 1555.744 682.676 C 1563.842 674.496, 1570.789 670.098, 1581.510 666.364 C 1588.745 663.844, 1590.823 663.578, 1603.500 663.544 C 1615.143 663.513, 1618.815 663.887, 1625.309 665.766 C 1635.731 668.783, 1641.739 671.953, 1649.486 678.525 C 1653.035 681.536, 1656.145 684, 1656.395 684 C 1656.646 684, 1660.926 679.299, 1665.908 673.553 L 1674.965 663.105 1670.732 659.671 C 1657.631 649.042, 1641.913 642.013, 1625.500 639.444 C 1614.407 637.708, 1593.982 637.763, 1584.167 639.555 M 621 737.500 L 621 833 634.481 833 L 647.962 833 648.588 830.505 C 648.932 829.133, 649.053 795.822, 648.857 756.480 C 648.557 696.309, 648.718 684.993, 649.870 685.225 C 651.472 685.547, 656.656 693.102, 710.120 773.043 L 750.219 833 766.610 833 L 783 833 783 737.500 L 783 642 769.500 642 L 756 642 756 713.918 C 756 753.473, 755.727 786.548, 755.393 787.418 C 755.059 788.288, 754.272 788.995, 753.643 788.988 C 753.014 788.982, 746.329 779.644, 738.788 768.238 C 731.246 756.832, 723.543 745.250, 721.671 742.500 C 719.799 739.750, 712.894 729.400, 706.326 719.500 C 699.759 709.600, 692.997 699.475, 691.300 697 C 689.604 694.525, 685.580 688.478, 682.358 683.562 C 679.136 678.646, 675.825 673.625, 675 672.404 C 674.175 671.183, 669.266 663.843, 664.090 656.092 L 654.680 642 637.840 642 L 621 642 621 737.500 M 850 737.500 L 850 833 914.500 833 L 979 833 979 821.009 L 979 809.018 928.250 808.759 L 877.500 808.500 877.398 777.750 L 877.296 747 897.898 746.866 C 909.229 746.793, 926.375 746.818, 936 746.923 C 945.625 747.028, 956.551 746.816, 960.281 746.452 L 967.062 745.791 966.781 734.145 L 966.500 722.500 922.356 722.240 L 878.212 721.979 877.769 719.740 C 877.526 718.508, 877.366 706.025, 877.413 692 L 877.500 666.500 925.250 666.240 L 973 665.981 973 653.990 L 973 642 911.500 642 L 850 642 850 737.500 M 1746 737.433 L 1746 833 1759.489 833 L 1772.978 833 1773.239 791.750 L 1773.500 750.500 1788.664 750.224 L 1803.827 749.949 1805.784 752.724 C 1806.860 754.251, 1812.890 764.500, 1819.185 775.500 C 1825.480 786.500, 1835.500 803.938, 1841.452 814.250 L 1852.274 833 1868.637 833 C 1879.021 833, 1885 832.630, 1885 831.987 C 1885 831.430, 1881.022 824.567, 1876.160 816.737 C 1862 793.933, 1861.749 793.524, 1848.065 770.905 C 1840.879 759.028, 1835 748.868, 1835 748.327 C 1835 747.786, 1838.795 745.902, 1843.432 744.141 C 1852.984 740.512, 1862.004 734.327, 1867.147 727.879 C 1874.539 718.612, 1878.875 702.885, 1877.571 690.074 C 1875.193 666.724, 1864.377 653.589, 1841.087 645.771 L 1831.500 642.554 1788.750 642.210 L 1746 641.866 1746 737.433 M 1922 642.497 C 1922 642.771, 1925.353 647.834, 1929.451 653.747 C 1933.548 659.661, 1940.446 669.675, 1944.780 676 C 1949.113 682.325, 1959.935 697.977, 1968.829 710.782 C 1977.723 723.587, 1984.994 734.387, 1984.987 734.782 C 1984.981 735.177, 1981.943 739.667, 1978.237 744.759 C 1974.532 749.851, 1969.119 757.501, 1966.208 761.759 C 1951.459 783.335, 1934.290 807.963, 1923.801 822.590 C 1920.611 827.039, 1918 831.201, 1918 831.840 C 1918 832.674, 1922.723 833, 1934.822 833 L 1951.645 833 1954.101 829.250 C 1955.452 827.188, 1959.732 820.775, 1963.613 815 C 1970.609 804.588, 1978.088 793.374, 1988.957 777 C 1992.060 772.325, 1996.377 765.695, 1998.550 762.266 C 2001.199 758.085, 2003.072 756.109, 2004.238 756.266 C 2005.715 756.465, 2022.689 780.798, 2052.342 825.227 L 2057.500 832.955 2074.250 832.977 C 2083.463 832.990, 2090.997 832.663, 2090.993 832.250 C 2090.989 831.837, 2087.602 826.550, 2083.465 820.500 C 2079.329 814.450, 2073.842 806.350, 2071.271 802.500 C 2068.700 798.650, 2060.499 786.723, 2053.048 775.995 C 2045.597 765.267, 2037.802 754.017, 2035.727 750.995 C 2033.651 747.973, 2030.073 742.881, 2027.776 739.680 C 2024.793 735.525, 2023.870 733.473, 2024.549 732.505 C 2025.072 731.759, 2033.294 719.753, 2042.819 705.825 C 2052.345 691.896, 2061.450 678.700, 2063.052 676.500 C 2064.654 674.300, 2068.436 668.900, 2071.456 664.500 C 2074.477 660.100, 2078.985 653.671, 2081.474 650.212 C 2083.963 646.754, 2086 643.492, 2086 642.962 C 2086 642.383, 2079.536 642.024, 2069.750 642.061 L 2053.500 642.122 2044.427 655.811 C 2020.542 691.851, 2005.628 713.527, 2004.533 713.792 C 2003.871 713.952, 1999.184 707.652, 1994.118 699.792 C 1983.229 682.896, 1969.800 662.537, 1961.657 650.580 L 1955.815 642 1938.907 642 C 1929.608 642, 1922 642.224, 1922 642.497 M 1294.203 664.047 C 1284.261 665.830, 1273.438 670.875, 1266.594 676.917 C 1248.022 693.312, 1240.029 711.914, 1240.008 738.792 C 1239.987 763.999, 1250.776 786.213, 1270 800.548 C 1283.733 810.788, 1305.985 815.019, 1323 810.625 C 1339.635 806.329, 1356.177 794.300, 1363.557 781.132 C 1382.269 747.746, 1377.795 705.421, 1352.957 680.864 C 1340.640 668.686, 1329.358 663.997, 1311.052 663.445 C 1304.698 663.254, 1297.116 663.525, 1294.203 664.047 M 1773.501 676.250 C 1773.119 682.438, 1773.046 693.125, 1773.339 700 C 1773.633 706.875, 1773.901 715.763, 1773.936 719.750 L 1774 727 1793.250 726.999 C 1823.330 726.996, 1834.276 724.174, 1843.104 714.144 C 1847.780 708.832, 1849.382 703.845, 1849.413 694.500 C 1849.432 688.750, 1848.936 686.539, 1846.634 682.116 C 1839.173 667.786, 1831.019 665, 1796.537 665 L 1774.197 665 1773.501 676.250 M 1116.500 753.241 C 1112.100 759.411, 1108.345 765.081, 1108.155 765.840 C 1107.831 767.139, 1116.932 781.033, 1131.512 801.500 C 1135.039 806.450, 1141.386 815.563, 1145.617 821.750 L 1153.310 833 1170.762 833 C 1185.094 833, 1188.120 832.756, 1187.690 831.636 C 1187.207 830.377, 1182.001 822.897, 1172.980 810.500 C 1170.979 807.750, 1165.128 799.425, 1159.978 792 C 1154.828 784.575, 1145.583 771.264, 1139.433 762.419 C 1133.283 753.574, 1127.729 745.362, 1127.090 744.169 C 1126.452 742.976, 1125.608 742.005, 1125.215 742.011 C 1124.822 742.017, 1120.900 747.070, 1116.500 753.241" stroke="none" fill="#000000" fill-rule="evenodd"/><path d="M 1183.743 601.250 C 1176.615 610.936, 1168.999 621.455, 1166.305 625.337 C 1158.562 636.494, 1135.957 668.063, 1133.250 671.500 C 1131.950 673.150, 1129.348 676.750, 1127.468 679.500 C 1121.977 687.530, 1105.189 711.339, 1103.670 713.250 C 1102.905 714.212, 1101.879 714.991, 1101.390 714.979 C 1100.900 714.968, 1098.614 712.155, 1096.309 708.729 C 1088.112 696.545, 1081.707 687.444, 1078.552 683.500 C 1076.793 681.300, 1075.044 678.825, 1074.666 678 C 1074.288 677.175, 1070.722 671.946, 1066.740 666.379 C 1062.758 660.812, 1057.250 653.064, 1054.500 649.161 L 1049.500 642.064 1032.250 642.032 C 1022.763 642.014, 1015 642.215, 1015 642.477 C 1015 642.739, 1019.388 649.065, 1024.750 656.534 C 1030.112 664.004, 1035.614 671.777, 1036.976 673.807 C 1044.686 685.305, 1075.181 727.985, 1079.700 733.603 C 1081.515 735.860, 1083 738.489, 1083 739.446 C 1083 740.403, 1078.925 746.881, 1073.944 753.843 C 1068.963 760.804, 1060.751 772.365, 1055.694 779.533 C 1050.637 786.701, 1045.700 793.676, 1044.723 795.033 C 1043.746 796.390, 1038.327 804.025, 1032.681 812 C 1027.035 819.975, 1020.184 829.613, 1017.458 833.417 C 1014.731 837.222, 1010.700 842.909, 1008.500 846.055 C 1006.300 849.201, 1000.100 857.898, 994.721 865.381 C 989.343 872.864, 984.676 879.681, 984.351 880.528 C 983.836 881.869, 985.171 882.033, 994.590 881.785 L 1005.422 881.500 1009.273 876.500 C 1011.392 873.750, 1014.977 868.800, 1017.241 865.500 C 1019.506 862.200, 1025.022 854.550, 1029.500 848.500 C 1033.979 842.450, 1041.661 831.723, 1046.571 824.663 C 1060.387 804.799, 1063.590 800.289, 1071.903 789 C 1076.155 783.225, 1081.957 775.125, 1084.795 771 C 1093.686 758.081, 1101.100 747.676, 1104.869 742.831 C 1106.866 740.263, 1110.750 734.943, 1113.500 731.009 C 1116.250 727.075, 1121.334 719.952, 1124.797 715.178 C 1132.407 704.690, 1150.996 678.614, 1164.489 659.500 C 1169.925 651.800, 1179.172 638.750, 1185.039 630.500 C 1190.906 622.250, 1198.891 611.018, 1202.783 605.541 C 1206.675 600.063, 1209.639 595.226, 1209.371 594.791 C 1209.102 594.356, 1204.426 594, 1198.980 594 L 1189.079 594 1183.743 601.250 M 1116.500 753.241 C 1112.100 759.411, 1108.345 765.081, 1108.155 765.840 C 1107.831 767.139, 1116.932 781.033, 1131.512 801.500 C 1135.039 806.450, 1141.386 815.563, 1145.617 821.750 L 1153.310 833 1170.762 833 C 1185.094 833, 1188.120 832.756, 1187.690 831.636 C 1187.207 830.377, 1182.001 822.897, 1172.980 810.500 C 1170.979 807.750, 1165.128 799.425, 1159.978 792 C 1154.828 784.575, 1145.583 771.264, 1139.433 762.419 C 1133.283 753.574, 1127.729 745.362, 1127.090 744.169 C 1126.452 742.976, 1125.608 742.005, 1125.215 742.011 C 1124.822 742.017, 1120.900 747.070, 1116.500 753.241 M 1922 642.497 C 1922 642.771, 1925.353 647.834, 1929.451 653.747 C 1933.548 659.661, 1940.446 669.675, 1944.780 676 C 1949.113 682.325, 1959.935 697.977, 1968.829 710.782 C 1977.723 723.587, 1984.994 734.387, 1984.987 734.782 C 1984.981 735.177, 1981.943 739.667, 1978.237 744.759 C 1974.532 749.851, 1969.119 757.501, 1966.208 761.759 C 1951.459 783.335, 1934.290 807.963, 1923.801 822.590 C 1920.611 827.039, 1918 831.201, 1918 831.840 C 1918 832.674, 1922.723 833, 1934.822 833 L 1951.645 833 1954.101 829.250 C 1955.452 827.188, 1959.732 820.775, 1963.613 815 C 1970.609 804.588, 1978.088 793.374, 1988.957 777 C 1992.060 772.325, 1996.377 765.695, 1998.550 762.266 C 2001.199 758.085, 2003.072 756.109, 2004.238 756.266 C 2005.715 756.465, 2022.689 780.798, 2052.342 825.227 L 2057.500 832.955 2074.250 832.977 C 2083.463 832.990, 2090.997 832.663, 2090.993 832.250 C 2090.989 831.837, 2087.602 826.550, 2083.465 820.500 C 2079.329 814.450, 2073.842 806.350, 2071.271 802.500 C 2068.700 798.650, 2060.499 786.723, 2053.048 775.995 C 2045.597 765.267, 2037.802 754.017, 2035.727 750.995 C 2033.651 747.973, 2030.073 742.881, 2027.776 739.680 C 2024.793 735.525, 2023.870 733.473, 2024.549 732.505 C 2025.072 731.759, 2033.294 719.753, 2042.819 705.825 C 2052.345 691.896, 2061.450 678.700, 2063.052 676.500 C 2064.654 674.300, 2068.436 668.900, 2071.456 664.500 C 2074.477 660.100, 2078.985 653.671, 2081.474 650.212 C 2083.963 646.754, 2086 643.492, 2086 642.962 C 2086 642.383, 2079.536 642.024, 2069.750 642.061 L 2053.500 642.122 2044.427 655.811 C 2020.542 691.851, 2005.628 713.527, 2004.533 713.792 C 2003.871 713.952, 1999.184 707.652, 1994.118 699.792 C 1983.229 682.896, 1969.800 662.537, 1961.657 650.580 L 1955.815 642 1938.907 642 C 1929.608 642, 1922 642.224, 1922 642.497" stroke="none" fill="#B87333" fill-rule="evenodd"/>
<path d=" M 1183.743 601.250 C 1176.615 610.936, 1168.999 621.455, 1166.305 625.337 C 1158.562 636.494, 1135.957 668.063, 1133.250 671.500 C 1131.950 673.150, 1129.348 676.750, 1127.468 679.500 C 1121.977 687.530, 1105.189 711.339, 1103.670 713.250 C 1102.905 714.212, 1101.879 714.991, 1101.390 714.979 C 1100.900 714.968, 1098.614 712.155, 1096.309 708.729 C 1088.112 696.545, 1081.707 687.444, 1078.552 683.500 C 1076.793 681.300, 1075.044 678.825, 1074.666 678 C 1074.288 677.175, 1070.722 671.946, 1066.740 666.379 C 1062.758 660.812, 1057.250 653.064, 1054.500 649.161 L 1049.500 642.064 1032.250 642.032 C 1022.763 642.014, 1015 642.215, 1015 642.477 C 1015 642.739, 1019.388 649.065, 1024.750 656.534 C 1030.112 664.004, 1035.614 671.777, 1036.976 673.807 C 1044.686 685.305, 1075.181 727.985, 1079.700 733.603 C 1081.515 735.860, 1083 738.489, 1083 739.446 C 1083 740.403, 1078.925 746.881, 1073.944 753.843 C 1068.963 760.804, 1060.751 772.365, 1055.694 779.533 C 1050.637 786.701, 1045.700 793.676, 1044.723 795.033 C 1043.746 796.390, 1038.327 804.025, 1032.681 812 C 1027.035 819.975, 1020.184 829.613, 1017.458 833.417 C 1014.731 837.222, 1010.700 842.909, 1008.500 846.055 C 1006.300 849.201, 1000.100 857.898, 994.721 865.381 C 989.343 872.864, 984.676 879.681, 984.351 880.528 C 983.836 881.869, 985.171 882.033, 994.590 881.785 L 1005.422 881.500 1009.273 876.500 C 1011.392 873.750, 1014.977 868.800, 1017.241 865.500 C 1019.506 862.200, 1025.022 854.550, 1029.500 848.500 C 1033.979 842.450, 1041.661 831.723, 1046.571 824.663 C 1060.387 804.799, 1063.590 800.289, 1071.903 789 C 1076.155 783.225, 1081.957 775.125, 1084.795 771 C 1093.686 758.081, 1101.100 747.676, 1104.869 742.831 C 1106.866 740.263, 1110.750 734.943, 1113.500 731.009 C 1116.250 727.075, 1121.334 719.952, 1124.797 715.178 C 1132.407 704.690, 1150.996 678.614, 1164.489 659.500 C 1169.925 651.800, 1179.172 638.750, 1185.039 630.500 C 1190.906 622.250, 1198.891 611.018, 1202.783 605.541 C 1206.675 600.063, 1209.639 595.226, 1209.371 594.791 C 1209.102 594.356, 1204.426 594, 1198.980 594 L 1189.079 594 1183.743 601.250 M 1922 642.497 C 1922 642.771, 1925.353 647.834, 1929.451 653.747 C 1933.548 659.661, 1940.446 669.675, 1944.780 676 C 1949.113 682.325, 1959.935 697.977, 1968.829 710.782 C 1977.723 723.587, 1984.994 734.387, 1984.987 734.782 C 1984.981 735.177, 1981.943 739.667, 1978.237 744.759 C 1974.532 749.851, 1969.119 757.501, 1966.208 761.759 C 1951.459 783.335, 1934.290 807.963, 1923.801 822.590 C 1920.611 827.039, 1918 831.201, 1918 831.840 C 1918 832.674, 1922.723 833, 1934.822 833 L 1951.645 833 1954.101 829.250 C 1955.452 827.188, 1959.732 820.775, 1963.613 815 C 1970.609 804.588, 1978.088 793.374, 1988.957 777 C 1992.060 772.325, 1996.377 765.695, 1998.550 762.266 C 2001.199 758.085, 2003.072 756.109, 2004.238 756.266 C 2005.715 756.465, 2022.689 780.798, 2052.342 825.227 L 2057.500 832.955 2074.250 832.977 C 2083.463 832.990, 2090.997 832.663, 2090.993 832.250 C 2090.989 831.837, 2087.602 826.550, 2083.465 820.500 C 2079.329 814.450, 2073.842 806.350, 2071.271 802.500 C 2068.700 798.650, 2060.499 786.723, 2053.048 775.995 C 2045.597 765.267, 2037.802 754.017, 2035.727 750.995 C 2033.651 747.973, 2030.073 742.881, 2027.776 739.680 C 2024.793 735.525, 2023.870 733.473, 2024.549 732.505 C 2025.072 731.759, 2033.294 719.753, 2042.819 705.825 C 2052.345 691.896, 2061.450 678.700, 2063.052 676.500 C 2064.654 674.300, 2068.436 668.900, 2071.456 664.500 C 2074.477 660.100, 2078.985 653.671, 2081.474 650.212 C 2083.963 646.754, 2086 643.492, 2086 642.962 C 2086 642.383, 2079.536 642.024, 2069.750 642.061 L 2053.500 642.122 2044.427 655.811 C 2020.542 691.851, 2005.628 713.527, 2004.533 713.792 C 2003.871 713.952, 1999.184 707.652, 1994.118 699.792 C 1983.229 682.896, 1969.800 662.537, 1961.657 650.580 L 1955.815 642 1938.907 642 C 1929.608 642, 1922 642.224, 1922 642.497 M 1116.500 753.241 C 1112.100 759.411, 1108.345 765.081, 1108.155 765.840 C 1107.831 767.139, 1116.932 781.033, 1131.512 801.500 C 1135.039 806.450, 1141.386 815.563, 1145.617 821.750 L 1153.310 833 1170.762 833 C 1185.094 833, 1188.120 832.756, 1187.690 831.636 C 1187.207 830.377, 1182.001 822.897, 1172.980 810.500 C 1170.979 807.750, 1165.128 799.425, 1159.978 792 C 1154.828 784.575, 1145.583 771.264, 1139.433 762.419 C 1133.283 753.574, 1127.729 745.362, 1127.090 744.169 C 1126.452 742.976, 1125.608 742.005, 1125.215 742.011 C 1124.822 742.017, 1120.900 747.070, 1116.500 753.241" stroke="none" fill="#000000" fill-rule="evenodd"/><path d=" M 1183.743 601.250 C 1176.615 610.936, 1168.999 621.455, 1166.305 625.337 C 1158.562 636.494, 1135.957 668.063, 1133.250 671.500 C 1131.950 673.150, 1129.348 676.750, 1127.468 679.500 C 1120.974 688.996, 1105.081 711.507, 1103.236 713.820 L 1101.386 716.139 1096.752 709.320 C 1086.926 694.861, 1081.633 687.351, 1078.552 683.500 C 1076.793 681.300, 1075.044 678.825, 1074.666 678 C 1074.288 677.175, 1070.722 671.946, 1066.740 666.379 C 1062.758 660.812, 1057.250 653.064, 1054.500 649.161 L 1049.500 642.064 1032.750 642.032 C 1019.985 642.008, 1016.007 642.297, 1016.028 643.250 C 1016.043 643.938, 1020.118 650.125, 1025.083 657 C 1030.048 663.875, 1035.739 671.975, 1037.730 675 C 1039.720 678.025, 1042.997 682.750, 1045.011 685.500 C 1047.025 688.250, 1055.273 699.725, 1063.341 711 C 1071.408 722.275, 1079.392 733.349, 1081.081 735.609 L 1084.154 739.719 1074.327 753.346 C 1064.686 766.715, 1045.912 793.130, 1043.047 797.356 C 1040.378 801.293, 1019.697 830.407, 1014.565 837.453 C 1011.779 841.277, 1008.375 846.078, 1007 848.121 C 1005.625 850.164, 1000.112 857.927, 994.750 865.371 C 989.388 872.815, 985 879.618, 985 880.488 C 985 881.846, 986.445 882.030, 995.211 881.785 L 1005.422 881.500 1009.273 876.500 C 1011.392 873.750, 1014.977 868.800, 1017.241 865.500 C 1019.506 862.200, 1025.022 854.550, 1029.500 848.500 C 1033.979 842.450, 1041.661 831.723, 1046.571 824.663 C 1060.387 804.799, 1063.590 800.289, 1071.903 789 C 1076.155 783.225, 1081.957 775.125, 1084.795 771 C 1093.686 758.081, 1101.100 747.676, 1104.869 742.831 C 1106.866 740.263, 1110.750 734.943, 1113.500 731.009 C 1116.250 727.075, 1121.334 719.952, 1124.797 715.178 C 1132.407 704.690, 1150.996 678.614, 1164.489 659.500 C 1169.925 651.800, 1179.172 638.750, 1185.038 630.500 C 1190.904 622.250, 1198.695 611.292, 1202.352 606.149 C 1206.008 601.006, 1209 596.169, 1209 595.399 C 1209 594.294, 1206.907 594, 1199.039 594 L 1189.079 594 1183.743 601.250 M 1923.016 643.250 C 1923.025 643.938, 1926.150 649, 1929.960 654.500 C 1933.771 660, 1940.436 669.675, 1944.773 676 C 1949.110 682.325, 1959.935 697.977, 1968.829 710.782 C 1977.723 723.587, 1984.994 734.387, 1984.987 734.782 C 1984.981 735.177, 1981.943 739.667, 1978.237 744.759 C 1974.532 749.851, 1969.119 757.501, 1966.208 761.759 C 1951.459 783.335, 1934.290 807.963, 1923.801 822.590 C 1920.611 827.039, 1918 831.201, 1918 831.840 C 1918 832.674, 1922.723 833, 1934.822 833 L 1951.645 833 1954.101 829.250 C 1955.452 827.188, 1959.734 820.775, 1963.618 815 C 1992.331 772.298, 1999.411 761.553, 2001.667 757.250 C 2002.604 755.462, 2003.625 754.011, 2003.935 754.025 C 2004.246 754.038, 2010.125 762.481, 2017 772.787 C 2023.875 783.092, 2035.800 800.842, 2043.500 812.232 L 2057.500 832.939 2073.750 832.970 C 2087.493 832.995, 2090 832.770, 2090 831.510 C 2090 830.691, 2086.738 825.229, 2082.750 819.373 C 2055.938 779.997, 2042.440 760.436, 2031.250 744.743 C 2027.263 739.151, 2024 734.202, 2024 733.745 C 2024 733.288, 2025.717 730.571, 2027.816 727.707 C 2029.915 724.843, 2038.043 713.050, 2045.878 701.500 C 2053.713 689.950, 2061.438 678.700, 2063.044 676.500 C 2064.650 674.300, 2068.436 668.900, 2071.456 664.500 C 2074.477 660.100, 2078.985 653.671, 2081.474 650.212 C 2083.963 646.754, 2086 643.492, 2086 642.962 C 2086 642.383, 2079.536 642.024, 2069.750 642.061 L 2053.500 642.122 2044.424 655.811 C 2019.943 692.734, 2004.683 714.922, 2004.041 714.525 C 2003.650 714.284, 1999.186 707.655, 1994.119 699.793 C 1983.229 682.896, 1969.801 662.538, 1961.657 650.580 L 1955.815 642 1939.407 642 C 1926.939 642, 1923.004 642.300, 1923.016 643.250 M 1122.797 744.750 C 1119.152 748.965, 1108 765.204, 1108 766.296 C 1108 767.479, 1118.867 783.749, 1131.512 801.500 C 1135.039 806.450, 1141.386 815.563, 1145.617 821.750 L 1153.310 833 1170.155 833 C 1184.354 833, 1187 832.768, 1187 831.521 C 1187 830.184, 1183.663 825.180, 1172.980 810.500 C 1170.979 807.750, 1165.128 799.425, 1159.978 792 C 1154.828 784.575, 1145.490 771.130, 1139.227 762.123 C 1132.964 753.116, 1127.603 745.128, 1127.313 744.373 C 1126.589 742.487, 1124.611 742.652, 1122.797 744.750" stroke="none" fill="#B87333" fill-rule="evenodd"/>
</svg>